<svg xmlns="http://www.w3.org/2000/svg" viewBox="0 0 256 256">
  <!-- Outer (red) flame -->
  <path fill="#FF3B00" d="M128 8
    C 90 60 80 100 84 132
      70 120 52 98 52 72
      36 96 32 122 32 144
      32 190 68 232 128 248
      188 232 224 190 224 144
      224 118 220 98 204 72
      204 98 186 120 172 132
      176 100 166 60 128 8 Z" />
  <!-- Middle (orange) flame -->
  <path fill="#FF8A00" d="M128 40
    C 102 78 100 108 104 136
      94 126 82 110 82 92
      70 110 68 128 68 146
      68 180 92 208 128 220
      164 208 188 180 188 146
      188 130 186 112 174 92
      174 110 162 126 152 136
      156 108 154 78 128 40 Z" />
  <!-- Inner (yellow) flame -->
  <path fill="#FFD93B" d="M128 92
    C 114 112 112 132 114 148
      108 142 102 132 102 122
      94 134 92 146 92 156
      92 178 108 196 128 202
      148 196 164 178 164 156
      164 146 162 134 154 122
      154 132 148 142 142 148
      144 132 142 112 128 92 Z" />
</svg>

